# File created by Blade
# Date/Time:  Tue Jan 27 17:21:46 2015
#---------------------------------------------------------
:version 1.10
:name HOM
:units
  mass 1.0
  length 1.000000
  angle deg
:documentation
     Acclaim Skeleton File
:root
   axis xyz
   order TX TY TZ RX RY RZ
   position 0.000000 0.000000 0.000000
   orientation 0 0 0
:bonedata
   begin
      id 1
      name Spine_dum
      direction 0.000000 1.000000 0.000000
      length 7.539951
      axis 0.0 0.0 0.0 xyz
   end
   begin
      id 2
      name LeftUpLeg_dum
      direction 1.000000 0.000000 0.000000
      length 3.345476
      axis 0.0 0.0 0.0 xyz
   end
   begin
      id 3
      name RightUpLeg_dum
      direction -1.000000 0.000000 0.000000
      length 3.345476
      axis 0.0 0.0 0.0 xyz
   end
   begin
      id 4
      name Spine
      direction 0.000000 1.000000 0.000000
      length 0.000000
      axis 0.0 0.0 0.0 xyz
      dof rx ry rz
   end
   begin
      id 5
      name Spine_dum1
      direction 0.000000 1.000000 0.000000
      length 15.093809
      axis 0.0 0.0 0.0 xyz
   end
   begin
      id 6
      name Spine_dum2
      direction 0.000000 1.000000 0.000000
      length 9.738928
      axis 0.0 0.0 0.0 xyz
   end
   begin
      id 7
      name Spine_dum3
      direction 0.000000 1.000000 0.000000
      length 9.738928
      axis 0.0 0.0 0.0 xyz
   end
   begin
      id 8
      name Head
      direction 0.000000 1.000000 0.000000
      length 4.527550
      axis 0.0 0.0 0.0 xyz
      dof rx ry rz
   end
   begin
      id 9
      name LeftShoulder
      direction 1.000000 0.000000 0.000000
      length 7.084015
      axis 0.0 0.0 -90.0 xyz
      dof rx ry rz
   end
   begin
      id 10
      name LeftArm
      direction 1.000000 0.000000 0.000000
      length 10.259319
      axis 0.0 0.0 -90.0 xyz
      dof rx ry rz
   end
   begin
      id 11
      name LeftForeArm
      direction 1.000000 0.000000 0.000000
      length 9.896984
      axis 0.0 0.0 -90.0 xyz
      dof ry rz rx
   end
   begin
      id 12
      name LeftHand
      direction 0.000000 0.000000 0.000000
      length 0.000000
      axis 0.0 0.0 -90.0 xyz
      dof rx ry rz
   end
   begin
      id 13
      name LeftHand_dum1
      direction 0.000000 0.000000 0.000000
      length 0.000000
      axis 0.0 0.0 -90.0 xyz
   end
   begin
      id 14
      name LeftHand_dum2
      direction 1.000000 0.000000 0.000000
      length 3.937000
      axis 0.0 0.0 -90.0 xyz
   end
   begin
      id 15
      name LeftHandThumb1
      direction 0.000000 0.000000 1.000000
      length 3.937000
      axis 0.0 0.0 -90.0 xyz
      dof rx rz ry
   end
   begin
      id 16
      name RightShoulder
      direction -1.000000 0.000000 0.000000
      length 7.084015
      axis 0.0 0.0 90.0 xyz
      dof rx ry rz
   end
   begin
      id 17
      name RightArm
      direction -1.000000 0.000000 0.000000
      length 10.259319
      axis 0.0 0.0 90.0 xyz
      dof rx ry rz
   end
   begin
      id 18
      name RightForeArm
      direction -1.000000 0.000000 0.000000
      length 9.896984
      axis 0.0 0.0 90.0 xyz
      dof ry rz rx
   end
   begin
      id 19
      name RightHand
      direction 0.000000 0.000000 0.000000
      length 0.000000
      axis 0.0 0.0 90.0 xyz
      dof rx ry rz
   end
   begin
      id 20
      name RightHand_dum1
      direction 0.000000 0.000000 0.000000
      length 0.000000
      axis 0.0 0.0 90.0 xyz
   end
   begin
      id 21
      name RightHand_dum2
      direction -1.000000 0.000000 0.000000
      length 3.937000
      axis 0.0 0.0 90.0 xyz
   end
   begin
      id 22
      name RightHandThumb1
      direction 0.000000 0.000000 1.000000
      length 3.937000
      axis 0.0 0.0 90.0 xyz
      dof rx rz ry
   end
   begin
      id 23
      name LeftUpLeg
      direction 0.000000 -1.000000 0.000000
      length 19.114733
      axis 0.0 0.0 0.0 xyz
      dof rx ry rz
   end
   begin
      id 24
      name LeftLeg
      direction 0.000000 -1.000000 0.000000
      length 16.045604
      axis 0.0 0.0 0.0 xyz
      dof rx ry rz
   end
   begin
      id 25
      name LeftFoot
      direction 0.000000 -0.258819 0.965926
      length 5.543155
      axis 15.0 0.0 0.0 xyz
      dof rx ry rz
   end
   begin
      id 26
      name LeftToeBase
      direction 0.000000 0.000000 1.000000
      length 2.952750
      axis 0.0 0.0 0.0 xyz
      dof rx ry rz
   end
   begin
      id 27
      name RightUpLeg
      direction 0.000000 -1.000000 0.000000
      length 19.114733
      axis 0.0 0.0 0.0 xyz
      dof rx ry rz
   end
   begin
      id 28
      name RightLeg
      direction 0.000000 -1.000000 0.000000
      length 16.045604
      axis 0.0 0.0 0.0 xyz
      dof rx ry rz
   end
   begin
      id 29
      name RightFoot
      direction 0.000000 -0.258819 0.965926
      length 5.543155
      axis 15.0 0.0 0.0 xyz
      dof rx ry rz
   end
   begin
      id 30
      name RightToeBase
      direction 0.000000 0.000000 1.000000
      length 2.952750
      axis 0.0 0.0 0.0 xyz
      dof rx ry rz
   end
:hierarchy
   begin
      root Spine_dum LeftUpLeg_dum RightUpLeg_dum
      Spine_dum Spine
      LeftUpLeg_dum LeftUpLeg
      RightUpLeg_dum RightUpLeg
      Spine Spine_dum1 Spine_dum2 Spine_dum3
      Spine_dum1 Head
      Spine_dum2 LeftShoulder
      Spine_dum3 RightShoulder
      LeftShoulder LeftArm
      LeftArm LeftForeArm
      LeftForeArm LeftHand
      LeftHand LeftHand_dum1 LeftHand_dum2
      LeftHand_dum1 LeftHandThumb1
      RightShoulder RightArm
      RightArm RightForeArm
      RightForeArm RightHand
      RightHand RightHand_dum1 RightHand_dum2
      RightHand_dum1 RightHandThumb1
      LeftUpLeg LeftLeg
      LeftLeg LeftFoot
      LeftFoot LeftToeBase
      RightUpLeg RightLeg
      RightLeg RightFoot
      RightFoot RightToeBase
   end

# File created by Blade
# Date/Time:  Tue Jan 27 17:21:37 2015
# Frame Rate: 120.000 fps
#------------------------------------------------------
:FULLY-SPECIFIED
:DEGREES
2590
root -3.340019 36.386647 0.641698 10.750973 53.889001 16.797527
Spine 14.844359 0.513653 -5.046938
Head 7.768773 1.204882 -1.477565
LeftShoulder 4.524402 -19.196688 7.809067
LeftArm 27.754337 -11.198056 -54.211590
LeftForeArm 2.025524 -0.000000 58.467488
LeftHand -12.926993 -0.000000 42.558198
LeftHandThumb1 -26.253704 0.000000 33.147579
RightShoulder -2.530114 -15.523580 0.154712
RightArm 14.425444 -16.887130 50.726901
RightForeArm 183.894383 -0.000000 33.832110
RightHand 0.066580 -0.000000 2.171366
RightHandThumb1 -24.326973 -0.000000 -32.862282
LeftUpLeg -60.656004 38.261251 5.097245
LeftLeg 35.560618 -0.000000 -0.000000
LeftFoot -0.234244 4.300417 -26.532435
LeftToeBase 14.836564 -0.000000 -0.000000
RightUpLeg -10.740770 -22.834747 0.376547
RightLeg 27.083790 -0.000000 -0.000000
RightFoot -22.886701 -21.320528 2.012066
RightToeBase 1.873856 -0.000000 -0.000000
2591
root -3.329225 36.392725 0.634623 10.813832 53.905665 16.869974
Spine 14.789286 0.355109 -5.115137
Head 7.797888 1.237080 -1.476854
LeftShoulder 4.445234 -19.194145 7.829665
LeftArm 27.678017 -11.155909 -54.197764
LeftForeArm 2.064521 -0.000000 58.466992
LeftHand -12.948216 -0.000000 42.610314
LeftHandThumb1 -26.253704 0.000000 33.147579
RightShoulder -2.539223 -15.539509 0.180081
RightArm 14.419109 -17.091718 50.637666
RightForeArm 183.699306 -0.000000 33.911555
RightHand -0.032118 -0.000000 2.183476
RightHandThumb1 -24.326973 -0.000000 -32.862282
LeftUpLeg -61.210149 38.335331 4.667589
LeftLeg 37.898666 -0.000000 -0.000000
LeftFoot -1.170696 4.278400 -26.591977
LeftToeBase 14.630934 -0.000000 -0.000000
RightUpLeg -10.714350 -22.858086 0.315942
RightLeg 27.038541 -0.000000 -0.000000
RightFoot -22.854231 -21.353927 1.955568
RightToeBase 1.876964 -0.000000 -0.000000
2592
root -3.318924 36.397563 0.627410 10.862651 53.939581 16.912990
Spine 14.729327 0.197580 -5.157258
Head 7.811526 1.235763 -1.472202
LeftShoulder 4.370775 -19.159985 7.853816
LeftArm 27.662510 -11.107655 -54.189737
LeftForeArm 2.125782 -0.000000 58.431300
LeftHand -12.896672 -0.000000 43.084696
LeftHandThumb1 -26.253704 0.000000 33.147579
RightShoulder -2.557425 -15.540078 0.228354
RightArm 14.351610 -17.220098 50.549849
RightForeArm 183.646964 -0.000000 34.035888
RightHand 0.172810 0.000000 1.772537
RightHandThumb1 -24.326973 -0.000000 -32.862282
LeftUpLeg -61.726949 38.338149 4.311504
LeftLeg 40.317913 -0.000000 -0.000000
LeftFoot -2.064130 4.425680 -26.597294
LeftToeBase 14.492659 -0.000000 -0.000000
RightUpLeg -10.698745 -22.876516 0.277023
RightLeg 26.992683 -0.000000 -0.000000
RightFoot -22.973914 -21.272672 2.120806
RightToeBase 2.143352 -0.000000 -0.000000
2593
root -3.311312 36.400773 0.617922 10.932631 54.018472 16.934313
Spine 14.633587 0.026820 -5.149059
Head 7.850458 1.162056 -1.518995
LeftShoulder 4.327604 -19.112652 7.851153
LeftArm 27.651216 -11.073293 -54.187385
LeftForeArm 2.162003 -0.000000 58.424665
LeftHand -12.918157 -0.000000 43.161706
LeftHandThumb1 -26.253704 0.000000 33.147579
RightShoulder -2.626963 -15.556155 0.293357
RightArm 14.313901 -17.443189 50.402860
RightForeArm 183.747339 0.000000 34.142789
RightHand 0.132865 -0.000000 1.813044
RightHandThumb1 -24.326973 -0.000000 -32.862282
LeftUpLeg -62.315871 38.314931 3.908874
LeftLeg 42.813770 -0.000000 -0.000000
LeftFoot -2.822931 4.689736 -26.569769
LeftToeBase 14.497622 -0.000000 -0.000000
RightUpLeg -10.731585 -22.938561 0.274655
RightLeg 26.962932 -0.000000 -0.000000
RightFoot -22.960501 -21.272753 2.111386
RightToeBase 2.184397 -0.000000 -0.000000
2594
root -3.309419 36.403103 0.605514 11.034233 54.079341 16.893008
Spine 14.442654 -0.125789 -5.102045
Head 7.820824 1.146291 -1.499861
LeftShoulder 4.294806 -19.073581 7.839308
LeftArm 27.608946 -11.036303 -54.187104
LeftForeArm 2.126239 0.000000 58.450910
LeftHand -12.901135 -0.000000 43.212095
LeftHandThumb1 -26.253704 0.000000 33.147579
RightShoulder -2.702074 -15.579455 0.384973
RightArm 14.268938 -17.600395 50.248300
RightForeArm 183.685851 0.000000 34.189691
RightHand 0.047812 -0.000000 1.614979
RightHandThumb1 -24.326973 -0.000000 -32.862282
LeftUpLeg -63.008630 38.317821 3.459984
LeftLeg 45.372194 -0.000000 -0.000000
LeftFoot -3.462474 5.078958 -26.717492
LeftToeBase 15.076053 -0.000000 -0.000000
RightUpLeg -10.851811 -22.888624 0.351703
RightLeg 26.901657 -0.000000 -0.000000
RightFoot -22.940106 -21.297406 2.210942
RightToeBase 2.045137 -0.000000 -0.000000
